<svg width="54" height="27" viewBox="0 0 54 27" fill="none" xmlns="http://www.w3.org/2000/svg">
<path d="M18.79 25.8708L18.776 25.8664L18.732 25.8491C18.4746 25.7468 18.2192 25.6418 17.966 25.5342C14.9216 24.2277 12.0766 22.6928 9.478 20.9552C4.876 17.8539 0 13.2518 0 7.58363C0 3.35419 4.928 0.000102488 10.876 0.000102488C12.5295 -0.00574683 14.1636 0.257712 15.6566 0.770885C17.1497 1.28406 18.4634 2.03374 19.5 2.96418C20.5368 2.03355 21.8508 1.28375 23.3443 0.770571C24.8377 0.25739 26.4722 -0.00596434 28.126 0.000102488C34.072 0.000102488 39 3.35419 39 7.58363C39 13.2532 34.124 17.8553 29.522 20.9537C26.9235 22.6914 24.0784 24.2263 21.034 25.5328C20.7808 25.6409 20.5254 25.7463 20.268 25.8491L20.224 25.8664L20.21 25.8722L20.204 25.8737C19.9871 25.9566 19.7454 26 19.5 26C19.2546 26 19.0129 25.9566 18.796 25.8737L18.79 25.8708Z" fill="white"/>
<path d="M39.2911 23.845L45.227 15.881H41.1333V10.7278L34.9927 18.6918H39.2911V23.845ZM40.1098 26.6559C38.2222 26.6559 36.4482 26.4099 34.788 25.918C33.1278 25.4261 31.6836 24.7586 30.4555 23.9153C29.2274 23.0721 28.2551 22.0805 27.5387 20.9405C26.8223 19.8006 26.4641 18.5825 26.4641 17.2864C26.4641 15.9903 26.8223 14.7723 27.5387 13.6323C28.2551 12.4924 29.2274 11.5008 30.4555 10.6575C31.6836 9.81428 33.1278 9.1467 34.788 8.65481C36.4482 8.16291 38.2222 7.91696 40.1098 7.91696C41.9975 7.91696 43.7714 8.16291 45.4317 8.65481C47.0919 9.1467 48.536 9.81428 49.7642 10.6575C50.9923 11.5008 51.9645 12.4924 52.6809 13.6323C53.3973 14.7723 53.7555 15.9903 53.7555 17.2864C53.7555 18.5825 53.3973 19.8006 52.6809 20.9405C51.9645 22.0805 50.9923 23.0721 49.7642 23.9153C48.536 24.7586 47.0919 25.4261 45.4317 25.918C43.7714 26.4099 41.9975 26.6559 40.1098 26.6559Z" fill="#894189"/>
<path d="M39.9861 23.2488L45.3823 16.0087H41.6608V11.324L36.0784 18.5641H39.9861V23.2488ZM40.7304 25.8041C39.0143 25.8041 37.4017 25.5805 35.8924 25.1333C34.3831 24.6861 33.0702 24.0793 31.9537 23.3127C30.8372 22.5461 29.9534 21.6446 29.3021 20.6083C28.6508 19.572 28.3252 18.4647 28.3252 17.2864C28.3252 16.1081 28.6508 15.0008 29.3021 13.9645C29.9534 12.9282 30.8372 12.0267 31.9537 11.2601C33.0702 10.4935 34.3831 9.88665 35.8924 9.43948C37.4017 8.9923 39.0143 8.76871 40.7304 8.76871C42.4464 8.76871 44.0591 8.9923 45.5684 9.43948C47.0777 9.88665 48.3906 10.4935 49.5071 11.2601C50.6235 12.0267 51.5074 12.9282 52.1587 13.9645C52.8099 15.0008 53.1356 16.1081 53.1356 17.2864C53.1356 18.4647 52.8099 19.572 52.1587 20.6083C51.5074 21.6446 50.6235 22.5461 49.5071 23.3127C48.3906 24.0793 47.0777 24.6861 45.5684 25.1333C44.0591 25.5805 42.4464 25.8041 40.7304 25.8041Z" fill="white"/>
</svg>
